<svg xmlns="http://www.w3.org/2000/svg" width="1200" height="1600" viewBox="0 0 1200 1600" role="img" aria-labelledby="title desc">
  <title id="title">The Black Ribbon Object</title>
  <desc id="desc">Original BFI ecosystem design concept board.</desc>
  <rect width="1200" height="1600" fill="#050505"/>
  
  <path d="M410 360 C780 230 890 560 602 700 C326 836 412 1178 804 1028" fill="none" stroke="#1B1B1B" stroke-width="150" stroke-linecap="round"/>
  <path d="M410 360 C780 230 890 560 602 700 C326 836 412 1178 804 1028" fill="none" stroke="#B89A5D" stroke-opacity="0.42" stroke-width="8" stroke-linecap="round"/>
  <path d="M792 420 C520 324 320 538 520 760 C724 988 958 1050 742 1240" fill="none" stroke="#1B1B1B" stroke-width="150" stroke-linecap="round"/>
  <path d="M792 420 C520 324 320 538 520 760 C724 988 958 1050 742 1240" fill="none" stroke="#F7F6F2" stroke-opacity="0.18" stroke-width="9" stroke-linecap="round"/>
  <text x="80" y="1480" fill="#F7F6F2" font-family="Georgia, serif" font-size="46" letter-spacing="3">The Black Ribbon Object</text>
  <text x="80" y="1534" fill="#B89A5D" font-family="IBM Plex Mono, ui-monospace, monospace" font-size="18" letter-spacing="5">BFI ECOSYSTEM CONCEPT</text>
</svg>
